<svg width="512" height="512" viewBox="0 0 512 512" fill="none" xmlns="http://www.w3.org/2000/svg">
<path d="M466.282 457.143C477.791 457.143 487.763 453.343 496.241 445.84L351.183 300.777C347.703 303.269 344.33 305.692 341.143 307.997C330.288 315.995 321.477 322.236 314.712 326.708C307.947 331.19 298.947 335.759 287.713 340.423C276.47 345.094 265.997 347.421 256.281 347.421H255.997H255.712C245.996 347.421 235.522 345.095 224.281 340.423C213.04 335.759 204.04 331.19 197.282 326.708C190.517 322.236 181.711 315.995 170.85 307.997C167.824 305.778 164.467 303.343 160.838 300.738L15.7524 445.84C24.2291 453.343 34.208 457.143 45.7161 457.143H466.282Z" fill="white"/>
<path d="M28.8602 209.43C18.0057 202.193 8.38003 193.905 0 184.57V405.272L127.853 277.419C102.275 259.562 69.3196 236.925 28.8602 209.43Z" fill="white"/>
<path d="M483.429 209.43C444.513 235.77 411.437 258.446 384.198 277.47L512 405.277V184.57C503.806 193.718 494.283 202 483.429 209.43Z" fill="white"/>
<path d="M466.282 54.8564H45.717C31.0447 54.8564 19.7645 59.811 11.8622 69.71C3.95348 79.6136 0.00561523 91.9991 0.00561523 106.853C0.00561523 118.851 5.24465 131.85 15.7181 145.856C26.1915 159.856 37.336 170.853 49.1462 178.852C55.6206 183.427 75.1452 197 107.72 219.568C125.305 231.754 140.597 242.375 153.738 251.54C164.939 259.345 174.599 266.104 182.575 271.713C183.491 272.355 184.931 273.385 186.842 274.752C188.901 276.231 191.506 278.107 194.721 280.429C200.911 284.905 206.053 288.524 210.149 291.289C214.239 294.054 219.194 297.143 225.008 300.573C230.817 303.999 236.296 306.574 241.438 308.288C246.581 310 251.342 310.859 255.723 310.859H256.007H256.291C260.671 310.859 265.433 310 270.577 308.288C275.718 306.574 281.193 304.004 287.006 300.573C292.814 297.143 297.763 294.048 301.866 291.289C305.962 288.524 311.104 284.906 317.295 280.429C320.503 278.107 323.109 276.23 325.168 274.756C327.08 273.384 328.519 272.361 329.44 271.713C335.653 267.389 345.335 260.659 358.353 251.619C382.04 235.161 416.925 210.938 463.154 178.852C477.058 169.141 488.674 157.422 498.009 143.712C507.328 130.002 512 115.62 512 100.572C512 88.0001 507.47 77.2422 498.43 68.2822C489.38 59.3332 478.663 54.8564 466.282 54.8564Z" fill="white"/>
</svg>
